<svg xmlns="http://www.w3.org/2000/svg" xmlns:xlink="http://www.w3.org/1999/xlink" viewBox="0 0 186.74 97.03"><defs><style>.cls-1{mask:url(#mask);filter:url(#luminosity-noclip-2);}.cls-2{mix-blend-mode:multiply;fill:url(#linear-gradient);}.cls-3{isolation:isolate;}.cls-4{mix-blend-mode:lighten;}.cls-5{mask:url(#mask-2);}.cls-6{fill:url(#Gradiente_sem_nome_6);}.cls-7{filter:url(#luminosity-noclip);}</style><filter id="luminosity-noclip" x="0" y="-7850.51" width="186.74" height="32766" filterUnits="userSpaceOnUse" color-interpolation-filters="sRGB"><feFlood flood-color="#fff" result="bg"/><feBlend in="SourceGraphic" in2="bg"/></filter><mask id="mask" x="0" y="-7850.51" width="186.74" height="32766" maskUnits="userSpaceOnUse"><g class="cls-7"/></mask><linearGradient id="linear-gradient" y1="48.51" x2="186.74" y2="48.51" gradientUnits="userSpaceOnUse"><stop offset="0" stop-color="#fff"/><stop offset="1" stop-color="#1a1a1a"/></linearGradient><filter id="luminosity-noclip-2" x="0" y="0" width="186.74" height="97.03" filterUnits="userSpaceOnUse" color-interpolation-filters="sRGB"><feFlood flood-color="#fff" result="bg"/><feBlend in="SourceGraphic" in2="bg"/></filter><mask id="mask-2" x="0" y="0" width="186.74" height="97.03" maskUnits="userSpaceOnUse"><g class="cls-1"><path class="cls-2" d="M182.45,45.25c-4.29-3.26-3.28.83-8,2.34s-4.35-2.74-12.68-6.21-7.25,3.78-13.26,6.21-3.34-14-9.12-14-5.87,11.63-11.52,11.63S120.41-.81,110,2.24,99,44.35,91.52,44.35,80.75,18.11,72.64,20.75,61.36,40.14,53.25,40.14,44.29,0,34.57,0,22.92,16.88,16.76,31.24,0,48.51,0,48.51s10.6,2.92,16.76,17.28S24.84,97,34.57,97,45.14,56.89,53.25,56.89,64.54,73.63,72.64,76.27,84,52.68,91.52,52.68,99.63,91.74,110,94.79s12.16-43,17.8-43,5.74,11.63,11.52,11.63,3.11-16.4,9.12-14,4.94,9.68,13.26,6.21,7.9-7.72,12.68-6.21,3.76,5.6,8,2.34,4.29-3.26,4.29-3.27Z"/></g></mask><linearGradient id="Gradiente_sem_nome_6" y1="48.51" x2="186.74" y2="48.51" gradientUnits="userSpaceOnUse"><stop offset="0" stop-color="#994392"/><stop offset="1" stop-color="#4082c4"/></linearGradient></defs><title>Asset 2</title><g class="cls-3"><g id="Layer_2" data-name="Layer 2"><g id="Camada_1" data-name="Camada 1"><g class="cls-4"><g class="cls-5"><path class="cls-6" d="M182.45,45.25c-4.29-3.26-3.28.83-8,2.34s-4.35-2.74-12.68-6.21-7.25,3.78-13.26,6.21-3.34-14-9.12-14-5.87,11.63-11.52,11.63S120.41-.81,110,2.24,99,44.35,91.52,44.35,80.75,18.11,72.64,20.75,61.36,40.14,53.25,40.14,44.29,0,34.57,0,22.92,16.88,16.76,31.24,0,48.51,0,48.51s10.6,2.92,16.76,17.28S24.84,97,34.57,97,45.14,56.89,53.25,56.89,64.54,73.63,72.64,76.27,84,52.68,91.52,52.68,99.63,91.74,110,94.79s12.16-43,17.8-43,5.74,11.63,11.52,11.63,3.11-16.4,9.12-14,4.94,9.68,13.26,6.21,7.9-7.72,12.68-6.21,3.76,5.6,8,2.34,4.29-3.26,4.29-3.27Z"/></g></g></g></g></g></svg>