<svg xmlns="http://www.w3.org/2000/svg" xmlns:xlink="http://www.w3.org/1999/xlink" viewBox="0 0 334.41 115.5"><defs><style>.cls-1{isolation:isolate;}.cls-2{fill:url(#Gradiente_sem_nome_3);}.cls-3{opacity:0.5;mix-blend-mode:multiply;fill:url(#linear-gradient);}</style><linearGradient id="Gradiente_sem_nome_3" y1="29.23" x2="332.55" y2="29.23" gradientUnits="userSpaceOnUse"><stop offset="0" stop-color="#994392"/><stop offset="1" stop-color="#27348b"/></linearGradient><linearGradient id="linear-gradient" x1="168.13" y1="59.29" x2="168.13" y2="115.5" gradientUnits="userSpaceOnUse"><stop offset="0.08" stop-color="#9e9e9e"/><stop offset="0.23" stop-color="#b9b9b9" stop-opacity="0.72"/><stop offset="0.4" stop-color="#d2d2d2" stop-opacity="0.46"/><stop offset="0.56" stop-color="#e6e6e6" stop-opacity="0.26"/><stop offset="0.72" stop-color="#f4f4f4" stop-opacity="0.12"/><stop offset="0.87" stop-color="#fcfcfc" stop-opacity="0.03"/><stop offset="1" stop-color="#fff" stop-opacity="0"/></linearGradient></defs><title>Asset 7</title><g class="cls-1"><g id="Layer_2" data-name="Layer 2"><g id="Camada_1" data-name="Camada 1"><path class="cls-2" d="M23,12.19a13.69,13.69,0,0,0-7,1.68A13.74,13.74,0,0,0,10.83,19V5.68a5.62,5.62,0,0,0-1.59-4A5.11,5.11,0,0,0,5.42,0H0V38.25q0,11.86,6.53,16a25.81,25.81,0,0,0,14.18,4.18,24.45,24.45,0,0,0,8.05-1.42,13.35,13.35,0,0,0,6.45-4.6Q40,45.94,40,35.58T35.21,18.71Q30.44,12.2,23,12.19Zm3.66,33.08a7.79,7.79,0,0,1-6.85,3.51,7.63,7.63,0,0,1-6.69-3.51q-2.23-3.17-2.24-10.19,0-6,2.4-9.52a7.89,7.89,0,0,1,6.85-3.34,7.5,7.5,0,0,1,6.53,3.51Q29,29.06,29,35.08,29,41.77,26.61,45.27ZM60.07,12.19q-9.07,0-14.18,6.19Q41,24.38,41,35.08q0,11.19,5.1,17.21,5.1,6.18,14.18,6.18a19.65,19.65,0,0,0,12.43-3.84,18.34,18.34,0,0,0,6.69-10.7h-8a4.57,4.57,0,0,0-3,.84,3.64,3.64,0,0,0-1.2,1.34l-.87.91a2.24,2.24,0,0,1-.88.59,8.69,8.69,0,0,1-4.62,1.17,7.36,7.36,0,0,1-6.21-2.67q-2.23-2.52-2.4-7.69H79.83A2.9,2.9,0,0,0,80,37.25V35.41q0-11-5.1-17.2Q69.64,12.19,60.07,12.19ZM52.26,30.9a9.87,9.87,0,0,1,2.4-6.68,7.54,7.54,0,0,1,5.73-2.34,7.47,7.47,0,0,1,5.9,2.34q1.9,2.18,2.23,6.68ZM112,15.37q-4.47-3.18-13.39-3.18-8,0-12.26,3.85a13.08,13.08,0,0,0-4.47,8.52H92.58a4.43,4.43,0,0,1,2.55-2.51,11.22,11.22,0,0,1,4-.67,15.69,15.69,0,0,1,4.54.75,3.14,3.14,0,0,1,2.47,3.26c0,2.23-2.33,3.68-7,4.34-1,.12-1.81.26-2.55.42a8.71,8.71,0,0,1-1.91.25,22,22,0,0,0-10,4q-3.9,3-3.9,10,0,7.53,4.3,10.78a16.17,16.17,0,0,0,10,3.26,60,60,0,0,0,6.61-.42,18.88,18.88,0,0,0,7.09-2.26,14.38,14.38,0,0,0,5.5-5.42q2.31-3.76,2.31-10.45V24.72A10.88,10.88,0,0,0,112,15.37Zm-5.74,24.05a10.2,10.2,0,0,1-2.55,7.35,9.19,9.19,0,0,1-7,2.68,5.87,5.87,0,0,1-4.14-1.34,5.55,5.55,0,0,1-1.43-4,7,7,0,0,1,1.11-3.67,9.29,9.29,0,0,1,4.14-2.18l3.67-.83a29.31,29.31,0,0,0,6.21-2.17ZM133.69,49H137v8.68a78.58,78.58,0,0,1-11.4-.17q-6.14-.49-6.13-8.18V.17h5.73a5,5,0,0,1,3.67,1.67,5.6,5.6,0,0,1,1.59,4v7.51H137V15.7a5.52,5.52,0,0,1-1.6,4.09,5.18,5.18,0,0,1-3.82,1.59H130.5V46.11Q130.5,48.95,133.69,49Zm37.92-13.54a10.8,10.8,0,0,1,3,8q0,7.35-5.1,11.36-4.77,3.68-14.34,3.68-9.07,0-13.54-3.84Q137,50.78,137,43.43v-.5h10.83a6.25,6.25,0,0,0,2.39,5,10.9,10.9,0,0,0,6.38,1.67,9.92,9.92,0,0,0,4.94-1.17,3.56,3.56,0,0,0,1.91-3.17c0-2-2.23-3.51-6.7-4.51a29.49,29.49,0,0,1-4.3-1q-8.44-2.17-11.31-5.18a10.5,10.5,0,0,1-3.19-8A13.57,13.57,0,0,1,142.61,16Q147.4,12.2,155,12.19q8.28,0,13.23,3.85a15,15,0,0,1,4.94,10.85h-6.85a5,5,0,0,1-4.63-2.84c-.42-.44-.85-.88-1.27-1.33a8.33,8.33,0,0,0-5.26-1.51,9.09,9.09,0,0,0-4.78,1,3.41,3.41,0,0,0-1.43,3q0,2.69,8.28,4.51a15,15,0,0,0,1.68.51,6,6,0,0,0,1.35.16Q168.43,32.58,171.61,35.41Zm31.24-21.88a23.4,23.4,0,0,0-11.8-1.08,16.28,16.28,0,0,0-10.67,5.93,19,19,0,0,0-3.75,7.51,35.43,35.43,0,0,0-1.19,9,39.16,39.16,0,0,0,1.43,10.61,16.64,16.64,0,0,0,4.78,8.1,18.14,18.14,0,0,0,8.53,4.26,20.66,20.66,0,0,0,10.59-.25,15.89,15.89,0,0,0,9.72-6.85,23.88,23.88,0,0,0,2.87-6.51,33.33,33.33,0,0,0,1.12-9.19,28.89,28.89,0,0,0-2.71-12.86A16.59,16.59,0,0,0,202.85,13.53Zm-1.28,31.41a8.23,8.23,0,0,1-4.38,3.75,7.24,7.24,0,0,1-4.86-.16A7.11,7.11,0,0,1,189,46.27q-2.39-3-2.71-10.6t3-11.45a8.12,8.12,0,0,1,3.51-1.92,7.45,7.45,0,0,1,4.78.08,8.42,8.42,0,0,1,4.22,3.85q1.83,3,1.83,9Q203.49,41.93,201.57,44.94ZM247.62,13.2h5.58V39.26q0,11.87-5.9,15.53a23.92,23.92,0,0,1-12.9,3.68,24.84,24.84,0,0,1-12.51-4q-5.65-3.68-5.66-15.2V13.2h11.15V41.59q0,4,2.24,5.85a7.74,7.74,0,0,0,5.09,1.84,8.07,8.07,0,0,0,5.18-1.84q2.31-1.83,2.31-5.85V18.88a5.76,5.76,0,0,1,1.52-4A5,5,0,0,1,247.62,13.2Zm44.3,18.37V57.63h-5.58a5.15,5.15,0,0,1-3.9-1.59A5.67,5.67,0,0,1,280.92,52V29.23q0-4-2.31-5.84a8.06,8.06,0,0,0-5.17-1.84,7.75,7.75,0,0,0-5.1,1.84q-2.23,1.83-2.23,5.84v28.4H255V31.57q0-11.35,5.66-15.2a24,24,0,0,1,12.51-4.18A23.17,23.17,0,0,1,286,16Q291.91,19.88,291.92,31.57ZM331,1.75A5,5,0,0,0,327.13,0h-5.41V19a15.56,15.56,0,0,0-5.1-5.17,14.23,14.23,0,0,0-7-1.68q-7.5,0-12.27,6.52-4.63,6.34-4.62,16.87,0,10.7,4.62,16.87a13.36,13.36,0,0,0,6.37,4.6,24.16,24.16,0,0,0,8.13,1.42A25.79,25.79,0,0,0,326,54.29q6.53-4.17,6.53-16V5.68A5.71,5.71,0,0,0,331,1.75ZM319.49,45.27a7.66,7.66,0,0,1-6.7,3.51,7.8,7.8,0,0,1-6.85-3.51q-2.38-3.51-2.39-10.19,0-6,2.39-9.35a7.51,7.51,0,0,1,6.53-3.51,8.18,8.18,0,0,1,6.86,3.34q2.39,3.51,2.39,9.52Q321.72,41.77,319.49,45.27Z"/><path class="cls-3" d="M24.8,103.78a14.16,14.16,0,0,1-7-1.61,13.47,13.47,0,0,1-5.1-5V110a5.29,5.29,0,0,1-1.59,3.86,5.21,5.21,0,0,1-3.83,1.6H1.86V78.73q0-11.42,6.53-15.42a26.54,26.54,0,0,1,14.18-4,25.21,25.21,0,0,1,8.05,1.37,13.35,13.35,0,0,1,6.45,4.41q4.78,6.27,4.78,16.23T37.07,97.52A14.8,14.8,0,0,1,24.8,103.78ZM28.47,72a7.9,7.9,0,0,0-6.86-3.37A7.74,7.74,0,0,0,14.92,72q-2.24,3-2.23,9.8,0,5.77,2.39,9.15a8,8,0,0,0,6.85,3.21,7.6,7.6,0,0,0,6.54-3.37q2.38-3.21,2.39-9Q30.86,75.35,28.47,72Zm33.46,31.8q-9.09,0-14.18-5.94-4.95-5.79-4.94-16.06,0-10.77,5.1-16.54,5.09-6,14.18-5.95,7.48,0,12.43,3.7a17.53,17.53,0,0,1,6.69,10.28h-8a4.71,4.71,0,0,1-2.95-.81,3.46,3.46,0,0,1-1.19-1.28l-.88-.89a2.36,2.36,0,0,0-.87-.56,9,9,0,0,0-4.63-1.12c-2.76,0-4.83.85-6.21,2.57s-2.29,4.07-2.39,7.39H81.69a2.83,2.83,0,0,1,.16,1.12v1.77q0,10.59-5.1,16.54Q71.48,103.78,61.93,103.78Zm-7.81-18a9.23,9.23,0,0,0,2.39,6.43,7.77,7.77,0,0,0,5.74,2.24,7.63,7.63,0,0,0,5.89-2.24q1.92-2.1,2.23-6.43Zm59.75,14.94q-4.45,3-13.38,3-8,0-12.27-3.69a12.41,12.41,0,0,1-4.46-8.19H94.43A4.36,4.36,0,0,0,97,94.3a11.51,11.51,0,0,0,4,.65,16,16,0,0,0,4.54-.73A3,3,0,0,0,108,91.09q0-3.21-7-4.17c-1-.11-1.81-.24-2.55-.4a8.78,8.78,0,0,0-1.91-.25,22.31,22.31,0,0,1-10-3.85q-3.92-2.9-3.91-9.64,0-7.22,4.31-10.36a16.62,16.62,0,0,1,10-3.13,65,65,0,0,1,6.62.4,19.54,19.54,0,0,1,7.09,2.17,14.27,14.27,0,0,1,5.5,5.22c1.53,2.41,2.31,5.76,2.31,10V91.73A10.35,10.35,0,0,1,113.87,100.73ZM108.14,77.6a9.57,9.57,0,0,0-2.55-7.06,9.41,9.41,0,0,0-7-2.57,6,6,0,0,0-4.15,1.28A5.25,5.25,0,0,0,93,73.1a6.55,6.55,0,0,0,1.12,3.54,9.49,9.49,0,0,0,4.14,2.09l3.66.8a29.73,29.73,0,0,1,6.22,2.09Zm27.4-9.15h3.35V60.1a79.83,79.83,0,0,0-11.39.16q-6.14.48-6.14,7.87v47.21h5.74a5,5,0,0,0,3.66-1.6,5.26,5.26,0,0,0,1.6-3.86v-7.22h6.53v-2.25a5.22,5.22,0,0,0-1.59-3.94A5.32,5.32,0,0,0,133.47,95h-1.11V71.18Q132.36,68.45,135.54,68.45Zm37.93,13a10.17,10.17,0,0,0,3-7.71c0-4.72-1.7-8.35-5.1-10.92q-4.78-3.54-14.34-3.54-9.09,0-13.55,3.7-4.62,3.69-4.62,10.76v.48h10.84a5.92,5.92,0,0,1,2.39-4.82,11.23,11.23,0,0,1,6.37-1.61,10.21,10.21,0,0,1,4.94,1.13,3.43,3.43,0,0,1,1.91,3c0,1.93-2.23,3.37-6.69,4.34a30.19,30.19,0,0,0-4.3,1q-8.44,2.09-11.32,5A9.92,9.92,0,0,0,139.85,90a12.84,12.84,0,0,0,4.62,10.12q4.78,3.69,12.43,3.69,8.28,0,13.22-3.69a14.17,14.17,0,0,0,4.94-10.44h-6.85a5.06,5.06,0,0,0-4.62,2.73c-.43.42-.85.85-1.27,1.28a8.51,8.51,0,0,1-5.26,1.45,9.31,9.31,0,0,1-4.78-1,3.24,3.24,0,0,1-1.44-2.89q0-2.56,8.29-4.33a14.07,14.07,0,0,1,1.67-.48,6.09,6.09,0,0,1,1.36-.17Q170.27,84.19,173.47,81.46Zm31.23,21a24.42,24.42,0,0,1-11.79,1,16.51,16.51,0,0,1-10.68-5.7,18,18,0,0,1-3.74-7.23,32.37,32.37,0,0,1-1.2-8.67,36,36,0,0,1,1.44-10.2A15.85,15.85,0,0,1,183.51,64a18.47,18.47,0,0,1,8.52-4.1,21.5,21.5,0,0,1,10.6.25,15.9,15.9,0,0,1,9.72,6.58,22.83,22.83,0,0,1,2.87,6.26,31,31,0,0,1,1.11,8.84,26.74,26.74,0,0,1-2.71,12.36A16.3,16.3,0,0,1,204.7,102.5Zm-1.27-30.2A8.15,8.15,0,0,0,199,68.69a7.56,7.56,0,0,0-4.86.16A7.15,7.15,0,0,0,190.84,71q-2.4,2.88-2.71,10.2c-.22,4.87.8,8.53,3,11a8.33,8.33,0,0,0,3.5,1.84,7.59,7.59,0,0,0,4.78-.08,8.22,8.22,0,0,0,4.22-3.69q1.84-2.9,1.84-8.67C205.39,77.33,204.7,74.23,203.43,72.3Zm46,30.52h5.57V77.76q0-11.4-5.89-14.93a24.63,24.63,0,0,0-12.91-3.54,25.48,25.48,0,0,0-12.51,3.86q-5.66,3.52-5.65,14.61v25.06h11.15V75.51q0-3.86,2.23-5.62a8,8,0,0,1,5.1-1.76,8.3,8.3,0,0,1,5.18,1.76q2.31,1.77,2.31,5.62V97.36a5.42,5.42,0,0,0,1.51,3.85A5.13,5.13,0,0,0,249.48,102.82Zm44.29-17.67V60.1H288.2a5.25,5.25,0,0,0-3.91,1.52,5.35,5.35,0,0,0-1.51,3.94V87.4q0,3.85-2.31,5.62a8.31,8.31,0,0,1-5.18,1.77,8,8,0,0,1-5.1-1.77Q268,91.25,268,87.4V60.1H256.81V85.15q0,10.92,5.65,14.62a24.64,24.64,0,0,0,12.51,4,23.85,23.85,0,0,0,12.91-3.69Q293.77,96.39,293.77,85.15Zm39,28.67A5.07,5.07,0,0,1,329,115.5h-5.42V97.2a15.07,15.07,0,0,1-5.1,5,15.44,15.44,0,0,1-19.28-4.65q-4.62-6.1-4.62-16.22,0-10.29,4.62-16.23a13.44,13.44,0,0,1,6.38-4.41,24.86,24.86,0,0,1,8.12-1.37,26.54,26.54,0,0,1,14.18,4q6.54,4,6.54,15.42V110A5.41,5.41,0,0,1,332.81,113.82ZM321.34,72a7.72,7.72,0,0,0-6.69-3.37A7.87,7.87,0,0,0,307.8,72q-2.4,3.38-2.39,9.8c0,3.85.79,6.85,2.39,9a7.57,7.57,0,0,0,6.53,3.37,8.29,8.29,0,0,0,6.85-3.21c1.6-2.25,2.39-5.3,2.39-9.15Q323.57,75.35,321.34,72Z"/></g></g></g></svg>