<svg xmlns="http://www.w3.org/2000/svg" xmlns:xlink="http://www.w3.org/1999/xlink" viewBox="0 0 460.54 118.97"><defs><style>.cls-1{mask:url(#mask);filter:url(#luminosity-noclip-6);}.cls-10,.cls-12,.cls-2,.cls-4,.cls-6,.cls-8{mix-blend-mode:multiply;}.cls-2{fill:url(#linear-gradient);}.cls-3{mask:url(#mask-2);filter:url(#luminosity-noclip-7);}.cls-4{fill:url(#linear-gradient-2);}.cls-5{mask:url(#mask-3);filter:url(#luminosity-noclip-8);}.cls-6{fill:url(#linear-gradient-3);}.cls-7{mask:url(#mask-4);filter:url(#luminosity-noclip-9);}.cls-8{fill:url(#linear-gradient-4);}.cls-9{mask:url(#mask-5);filter:url(#luminosity-noclip-10);}.cls-10{fill:url(#linear-gradient-5);}.cls-11{isolation:isolate;}.cls-12{opacity:0.5;}.cls-13{mask:url(#mask-6);}.cls-14{fill:url(#Gradiente_sem_nome_6);}.cls-15{mask:url(#mask-7);}.cls-16{fill:url(#Gradiente_sem_nome_3);}.cls-17{mask:url(#mask-8);}.cls-18{fill:url(#linear-gradient-6);}.cls-19{mask:url(#mask-9);}.cls-20{fill:url(#linear-gradient-7);}.cls-21{mask:url(#mask-10);}.cls-22{fill:url(#linear-gradient-8);}.cls-23{fill:url(#Gradiente_sem_nome_3-2);}.cls-24{filter:url(#luminosity-noclip-5);}.cls-25{filter:url(#luminosity-noclip-4);}.cls-26{filter:url(#luminosity-noclip-3);}.cls-27{filter:url(#luminosity-noclip-2);}.cls-28{filter:url(#luminosity-noclip);}</style><filter id="luminosity-noclip" x="7.52" y="-8704.96" width="400.54" height="32766" filterUnits="userSpaceOnUse" color-interpolation-filters="sRGB"><feFlood flood-color="#fff" result="bg"/><feBlend in="SourceGraphic" in2="bg"/></filter><mask id="mask" x="7.52" y="-8704.96" width="400.54" height="32766" maskUnits="userSpaceOnUse"><g class="cls-28"/></mask><linearGradient id="linear-gradient" x1="7.52" y1="69.43" x2="408.06" y2="69.43" gradientUnits="userSpaceOnUse"><stop offset="0" stop-color="#fff"/><stop offset="1" stop-color="#1a1a1a"/></linearGradient><filter id="luminosity-noclip-2" x="7.52" y="-8704.96" width="341.57" height="32766" filterUnits="userSpaceOnUse" color-interpolation-filters="sRGB"><feFlood flood-color="#fff" result="bg"/><feBlend in="SourceGraphic" in2="bg"/></filter><mask id="mask-2" x="7.52" y="-8704.96" width="341.57" height="32766" maskUnits="userSpaceOnUse"><g class="cls-27"/></mask><linearGradient id="linear-gradient-2" x1="7.52" y1="69.43" x2="349.09" y2="69.43" gradientUnits="userSpaceOnUse"><stop offset="0" stop-color="#fff"/><stop offset="1" stop-color="#4d4d4d"/></linearGradient><filter id="luminosity-noclip-3" x="426.76" y="-8704.96" width="7.07" height="32766" filterUnits="userSpaceOnUse" color-interpolation-filters="sRGB"><feFlood flood-color="#fff" result="bg"/><feBlend in="SourceGraphic" in2="bg"/></filter><mask id="mask-3" x="426.76" y="-8704.96" width="7.07" height="32766" maskUnits="userSpaceOnUse"><g class="cls-26"/></mask><linearGradient id="linear-gradient-3" x1="420.87" y1="68.73" x2="470.39" y2="73.94" gradientUnits="userSpaceOnUse"><stop offset="0" stop-color="#4d4d4d"/><stop offset="1" stop-color="#fff"/></linearGradient><filter id="luminosity-noclip-4" x="439.96" y="-8704.96" width="7.07" height="32766" filterUnits="userSpaceOnUse" color-interpolation-filters="sRGB"><feFlood flood-color="#fff" result="bg"/><feBlend in="SourceGraphic" in2="bg"/></filter><mask id="mask-4" x="439.96" y="-8704.96" width="7.07" height="32766" maskUnits="userSpaceOnUse"><g class="cls-25"/></mask><linearGradient id="linear-gradient-4" x1="421.07" y1="67.36" x2="470.59" y2="72.57" xlink:href="#linear-gradient-3"/><filter id="luminosity-noclip-5" x="453.47" y="-8704.96" width="7.07" height="32766" filterUnits="userSpaceOnUse" color-interpolation-filters="sRGB"><feFlood flood-color="#fff" result="bg"/><feBlend in="SourceGraphic" in2="bg"/></filter><mask id="mask-5" x="453.47" y="-8704.96" width="7.07" height="32766" maskUnits="userSpaceOnUse"><g class="cls-24"/></mask><linearGradient id="linear-gradient-5" x1="421.27" y1="65.96" x2="470.8" y2="71.17" xlink:href="#linear-gradient-3"/><filter id="luminosity-noclip-6" x="7.52" y="19.89" width="400.54" height="99.09" filterUnits="userSpaceOnUse" color-interpolation-filters="sRGB"><feFlood flood-color="#fff" result="bg"/><feBlend in="SourceGraphic" in2="bg"/></filter><mask id="mask-6" x="7.52" y="19.89" width="400.54" height="99.09" maskUnits="userSpaceOnUse"><g class="cls-1"><path class="cls-2" d="M398.87,66.1c-9.2-3.33-7,.85-17.28,2.39s-9.33-2.8-27.19-6.35S338.84,66,326,68.49s-7.16-14.27-19.55-14.27S293.8,66.1,281.7,66.1s-15.9-47-38.19-43.93-23.54,43-39.67,43-23.11-26.8-40.5-24.1-24.2,19.8-41.59,19.8-19.22-41-40.08-41-25,17.23-38.19,31.9-36,17.64-36,17.64,22.74,3,36,17.64S60.81,119,81.67,119s22.69-41,40.08-41,24.2,17.1,41.59,19.8,24.36-24.1,40.5-24.1,17.38,39.9,39.67,43S269.6,72.76,281.7,72.76,294,84.64,306.4,84.64,313.06,67.89,326,70.38s10.6,9.88,28.45,6.34,16.94-7.88,27.19-6.34,8.08,5.71,17.28,2.38l9.19-3.33Z"/></g></mask><linearGradient id="Gradiente_sem_nome_6" x1="7.52" y1="69.43" x2="408.06" y2="69.43" gradientUnits="userSpaceOnUse"><stop offset="0" stop-color="#994392"/><stop offset="1" stop-color="#4082c4"/></linearGradient><filter id="luminosity-noclip-7" x="7.52" y="42.99" width="341.57" height="52.88" filterUnits="userSpaceOnUse" color-interpolation-filters="sRGB"><feFlood flood-color="#fff" result="bg"/><feBlend in="SourceGraphic" in2="bg"/></filter><mask id="mask-7" x="7.52" y="42.99" width="341.57" height="52.88" maskUnits="userSpaceOnUse"><g class="cls-3"><path class="cls-4" d="M341.25,67.65c-7.84-1.77-6,.45-14.74,1.28s-7.95-1.5-23.18-3.39-13.27,2.06-24.26,3.39-6.11-7.62-16.68-7.62-10.74,6.34-21.06,6.34-13.56-25.1-32.57-23.44-20.07,22.95-33.83,22.95-19.7-14.3-34.53-12.86-20.63,10.57-35.47,10.57S88.54,43,70.75,43s-21.29,9.2-32.57,17S7.52,69.43,7.52,69.43,26.91,71,38.18,78.85s14.78,17,32.57,17S90.1,74,104.93,74s20.64,9.13,35.47,10.57S161.18,71.7,174.93,71.7s14.83,21.29,33.83,23S231,71.21,241.33,71.21s10.5,6.34,21.06,6.34,5.69-8.94,16.68-7.61,9,5.27,24.26,3.38,14.45-4.21,23.18-3.38,6.9,3,14.74,1.27l7.84-1.78Z"/></g></mask><linearGradient id="Gradiente_sem_nome_3" x1="7.52" y1="69.43" x2="349.09" y2="69.43" gradientUnits="userSpaceOnUse"><stop offset="0" stop-color="#994392"/><stop offset="1" stop-color="#27348b"/></linearGradient><filter id="luminosity-noclip-8" x="426.76" y="68.14" width="7.07" height="3.17" filterUnits="userSpaceOnUse" color-interpolation-filters="sRGB"><feFlood flood-color="#fff" result="bg"/><feBlend in="SourceGraphic" in2="bg"/></filter><mask id="mask-8" x="426.76" y="68.14" width="7.07" height="3.17" maskUnits="userSpaceOnUse"><g class="cls-5"><path class="cls-6" d="M433.83,69.72c0,.88-1.58,1.59-3.53,1.59s-3.54-.71-3.54-1.59,1.59-1.58,3.54-1.58S433.83,68.85,433.83,69.72Z"/></g></mask><linearGradient id="linear-gradient-6" x1="420.87" y1="68.73" x2="470.39" y2="73.94" gradientUnits="userSpaceOnUse"><stop offset="0" stop-color="#4cb0e4"/><stop offset="1" stop-color="#945da2"/></linearGradient><filter id="luminosity-noclip-9" x="439.96" y="68.14" width="7.07" height="3.17" filterUnits="userSpaceOnUse" color-interpolation-filters="sRGB"><feFlood flood-color="#fff" result="bg"/><feBlend in="SourceGraphic" in2="bg"/></filter><mask id="mask-9" x="439.96" y="68.14" width="7.07" height="3.17" maskUnits="userSpaceOnUse"><g class="cls-7"><path class="cls-8" d="M447,69.72c0,.88-1.58,1.59-3.54,1.59S440,70.6,440,69.72s1.58-1.58,3.53-1.58S447,68.85,447,69.72Z"/></g></mask><linearGradient id="linear-gradient-7" x1="421.07" y1="67.36" x2="470.59" y2="72.57" xlink:href="#linear-gradient-6"/><filter id="luminosity-noclip-10" x="453.47" y="68.14" width="7.07" height="3.17" filterUnits="userSpaceOnUse" color-interpolation-filters="sRGB"><feFlood flood-color="#fff" result="bg"/><feBlend in="SourceGraphic" in2="bg"/></filter><mask id="mask-10" x="453.47" y="68.14" width="7.07" height="3.17" maskUnits="userSpaceOnUse"><g class="cls-9"><path class="cls-10" d="M460.54,69.72c0,.88-1.59,1.59-3.54,1.59s-3.53-.71-3.53-1.59,1.58-1.58,3.53-1.58S460.54,68.85,460.54,69.72Z"/></g></mask><linearGradient id="linear-gradient-8" x1="421.27" y1="65.96" x2="470.8" y2="71.17" xlink:href="#linear-gradient-6"/><linearGradient id="Gradiente_sem_nome_3-2" x1="0" y1="37.78" x2="429.75" y2="37.78" xlink:href="#Gradiente_sem_nome_3"/></defs><title>logoAsset 9</title><g class="cls-11"><g id="Layer_2" data-name="Layer 2"><g id="Camada_1" data-name="Camada 1"><g class="cls-12"><g class="cls-13"><path class="cls-14" d="M398.87,66.1c-9.2-3.33-7,.85-17.28,2.39s-9.33-2.8-27.19-6.35S338.84,66,326,68.49s-7.16-14.27-19.55-14.27S293.8,66.1,281.7,66.1s-15.9-47-38.19-43.93-23.54,43-39.67,43-23.11-26.8-40.5-24.1-24.2,19.8-41.59,19.8-19.22-41-40.08-41-25,17.23-38.19,31.9-36,17.64-36,17.64,22.74,3,36,17.64S60.81,119,81.67,119s22.69-41,40.08-41,24.2,17.1,41.59,19.8,24.36-24.1,40.5-24.1,17.38,39.9,39.67,43S269.6,72.76,281.7,72.76,294,84.64,306.4,84.64,313.06,67.89,326,70.38s10.6,9.88,28.45,6.34,16.94-7.88,27.19-6.34,8.08,5.71,17.28,2.38l9.19-3.33Z"/></g><g class="cls-15"><path class="cls-16" d="M341.25,67.65c-7.84-1.77-6,.45-14.74,1.28s-7.95-1.5-23.18-3.39-13.27,2.06-24.26,3.39-6.11-7.62-16.68-7.62-10.74,6.34-21.06,6.34-13.56-25.1-32.57-23.44-20.07,22.95-33.83,22.95-19.7-14.3-34.53-12.86-20.63,10.57-35.47,10.57S88.54,43,70.75,43s-21.29,9.2-32.57,17S7.52,69.43,7.52,69.43,26.91,71,38.18,78.85s14.78,17,32.57,17S90.1,74,104.93,74s20.64,9.13,35.47,10.57S161.18,71.7,174.93,71.7s14.83,21.29,33.83,23S231,71.21,241.33,71.21s10.5,6.34,21.06,6.34,5.69-8.94,16.68-7.61,9,5.27,24.26,3.38,14.45-4.21,23.18-3.38,6.9,3,14.74,1.27l7.84-1.78Z"/></g><g class="cls-17"><path class="cls-18" d="M433.83,69.72c0,.88-1.58,1.59-3.53,1.59s-3.54-.71-3.54-1.59,1.59-1.58,3.54-1.58S433.83,68.85,433.83,69.72Z"/></g><g class="cls-19"><path class="cls-20" d="M447,69.72c0,.88-1.58,1.59-3.54,1.59S440,70.6,440,69.72s1.58-1.58,3.53-1.58S447,68.85,447,69.72Z"/></g><g class="cls-21"><path class="cls-22" d="M460.54,69.72c0,.88-1.59,1.59-3.54,1.59s-3.53-.71-3.53-1.59,1.58-1.58,3.53-1.58S460.54,68.85,460.54,69.72Z"/></g></g><path class="cls-23" d="M29.65,15.76a17.71,17.71,0,0,0-9.06,2.16A17.76,17.76,0,0,0,14,24.61V7.34a7.26,7.26,0,0,0-2.06-5.18A6.58,6.58,0,0,0,7,0H0V49.44Q0,64.77,8.44,70.16a33.38,33.38,0,0,0,18.33,5.4,31.48,31.48,0,0,0,10.4-1.84,17.24,17.24,0,0,0,8.34-5.94q6.18-8.41,6.18-21.8t-6.18-21.8Q39.33,15.77,29.65,15.76ZM34.39,58.5A10.06,10.06,0,0,1,25.53,63a9.86,9.86,0,0,1-8.64-4.54Q14,54.41,14,45.33q0-7.77,3.09-12.3A10.23,10.23,0,0,1,26,28.71a9.69,9.69,0,0,1,8.44,4.54q3.09,4.3,3.09,12.08Q37.48,54,34.39,58.5ZM77.63,15.76q-11.73,0-18.33,8-6.37,7.77-6.38,21.58,0,14.47,6.59,22.24,6.59,8,18.33,8,9.68,0,16.06-5,6.38-4.74,8.65-13.81H92.25a5.92,5.92,0,0,0-3.81,1.08,4.58,4.58,0,0,0-1.54,1.72l-1.14,1.19a2.93,2.93,0,0,1-1.13.76,11.29,11.29,0,0,1-6,1.51q-5.35,0-8-3.46-2.88-3.24-3.09-9.93h35.63a4,4,0,0,0,.2-1.51V45.77q0-14.25-6.59-22.24Q90,15.76,77.63,15.76ZM67.54,39.94q.21-5.61,3.09-8.64a9.8,9.8,0,0,1,7.41-3q5,0,7.62,3,2.48,2.81,2.88,8.64Zm77.22-20.08q-5.76-4.1-17.29-4.1-10.31,0-15.86,5a16.84,16.84,0,0,0-5.77,11h13.8a5.71,5.71,0,0,1,3.29-3.23,14.3,14.3,0,0,1,5.15-.87,20.53,20.53,0,0,1,5.87,1,4.05,4.05,0,0,1,3.19,4.21q0,4.32-9.06,5.62a30.13,30.13,0,0,0-3.29.54,11.93,11.93,0,0,1-2.47.32,28.24,28.24,0,0,0-12.87,5.18q-5.06,3.89-5,13,0,9.72,5.56,13.93a20.93,20.93,0,0,0,13,4.21,80.69,80.69,0,0,0,8.55-.54,24.4,24.4,0,0,0,9.16-2.92,18.52,18.52,0,0,0,7.11-7q3-4.86,3-13.5V32A14.07,14.07,0,0,0,144.76,19.86ZM137.35,51q0,6-3.3,9.5T125,63.9a7.54,7.54,0,0,1-5.35-1.73A7.16,7.16,0,0,1,117.79,57a9.12,9.12,0,0,1,1.44-4.75,12,12,0,0,1,5.35-2.8l4.74-1.08a38,38,0,0,0,8-2.81Zm35.42,12.3h4.32V74.48a103.37,103.37,0,0,1-14.72-.22q-7.94-.65-7.93-10.58V.22h7.41a6.37,6.37,0,0,1,4.74,2.16,7.24,7.24,0,0,1,2.06,5.18v9.71h8.44v3A7.14,7.14,0,0,1,175,25.58a6.74,6.74,0,0,1-4.94,2.05h-1.44v32Q168.65,63.26,172.77,63.25Zm49-17.48q3.9,3.88,3.91,10.36,0,9.49-6.59,14.68-6.18,4.75-18.53,4.75-11.74,0-17.51-5-6-5-6-14.46v-.65h14A8.11,8.11,0,0,0,194.18,62a14.13,14.13,0,0,0,8.24,2.15,12.73,12.73,0,0,0,6.38-1.51,4.6,4.6,0,0,0,2.47-4.1q0-3.89-8.64-5.83a38,38,0,0,1-5.57-1.29q-10.91-2.81-14.62-6.69a13.6,13.6,0,0,1-4.11-10.37,17.57,17.57,0,0,1,6-13.6q6.18-4.95,16.06-5,10.71,0,17.09,5a19.35,19.35,0,0,1,6.38,14H215a6.49,6.49,0,0,1-6-3.67l-1.65-1.73a10.69,10.69,0,0,0-6.79-1.94,11.81,11.81,0,0,0-6.18,1.29,4.43,4.43,0,0,0-1.85,3.89q0,3.45,10.7,5.83a20.08,20.08,0,0,0,2.17.64,7.35,7.35,0,0,0,1.75.22Q217.66,42.1,221.78,45.77Zm40.36-28.28a30.35,30.35,0,0,0-15.24-1.41,21.14,21.14,0,0,0-13.8,7.67,24.44,24.44,0,0,0-4.84,9.71,45.34,45.34,0,0,0-1.54,11.66,50.58,50.58,0,0,0,1.85,13.71,21.57,21.57,0,0,0,6.18,10.47,23.46,23.46,0,0,0,11,5.5,26.81,26.81,0,0,0,13.69-.32A20.53,20.53,0,0,0,272,65.63a31.06,31.06,0,0,0,3.71-8.42,43,43,0,0,0,1.44-11.88,37.31,37.31,0,0,0-3.5-16.62A21.41,21.41,0,0,0,262.14,17.49Zm-1.65,40.58Q258,62,254.83,62.93a9.4,9.4,0,0,1-6.28-.22,9.27,9.27,0,0,1-4.33-2.91q-3.09-3.88-3.5-13.71t3.91-14.79a10.66,10.66,0,0,1,4.53-2.48,9.55,9.55,0,0,1,6.18.11,10.86,10.86,0,0,1,5.46,5q2.37,3.88,2.37,11.66Q263,54.19,260.49,58.07Zm59.51-41h7.21V50.73q0,15.33-7.62,20.08a30.9,30.9,0,0,1-16.68,4.75,32.07,32.07,0,0,1-16.17-5.18q-7.31-4.75-7.31-19.65V17.05h14.42v36.7q0,5.19,2.88,7.56a10.09,10.09,0,0,0,6.59,2.37A10.49,10.49,0,0,0,310,61.31q3-2.37,3-7.56V24.39a7.43,7.43,0,0,1,2-5.18A6.51,6.51,0,0,1,320,17.05ZM377.25,40.8V74.48H370a6.67,6.67,0,0,1-5.05-2A7.37,7.37,0,0,1,363,67.14V37.78c0-3.46-1-6-3-7.56a10.49,10.49,0,0,0-6.69-2.37,10.09,10.09,0,0,0-6.59,2.37c-1.92,1.59-2.88,4.1-2.88,7.56v36.7H329.47V40.8q0-14.67,7.31-19.64A30.93,30.93,0,0,1,353,15.76a30,30,0,0,1,16.68,5Q377.24,25.7,377.25,40.8ZM427.7,2.27A6.47,6.47,0,0,0,422.75,0h-7V24.61a20,20,0,0,0-6.59-6.69,18.45,18.45,0,0,0-9.06-2.16q-9.68,0-15.85,8.42-6,8.2-6,21.8,0,13.82,6,21.8a17.26,17.26,0,0,0,8.23,5.94A31.14,31.14,0,0,0,403,75.56a33.34,33.34,0,0,0,18.32-5.4q8.44-5.4,8.44-20.72V7.34A7.35,7.35,0,0,0,427.7,2.27ZM412.87,58.5A9.87,9.87,0,0,1,404.22,63a10.06,10.06,0,0,1-8.85-4.54q-3.09-4.53-3.09-13.17,0-7.77,3.09-12.08a9.68,9.68,0,0,1,8.44-4.54A10.54,10.54,0,0,1,412.66,33q3.09,4.53,3.09,12.3Q415.75,54,412.87,58.5Z"/></g></g></g></svg>
