<svg xmlns="http://www.w3.org/2000/svg" xmlns:xlink="http://www.w3.org/1999/xlink" viewBox="0 0 206.91 208.47"><defs><style>.cls-1{mask:url(#mask);filter:url(#luminosity-noclip-6);}.cls-10,.cls-13,.cls-16,.cls-2,.cls-4,.cls-6,.cls-8{mix-blend-mode:multiply;}.cls-2{fill:url(#linear-gradient);}.cls-3{mask:url(#mask-2);filter:url(#luminosity-noclip-7);}.cls-4{fill:url(#linear-gradient-2);}.cls-5{mask:url(#mask-3);filter:url(#luminosity-noclip-8);}.cls-6{fill:url(#linear-gradient-3);}.cls-7{mask:url(#mask-4);filter:url(#luminosity-noclip-9);}.cls-8{fill:url(#linear-gradient-4);}.cls-9{mask:url(#mask-5);filter:url(#luminosity-noclip-10);}.cls-10{fill:url(#linear-gradient-5);}.cls-11{isolation:isolate;}.cls-12{fill:url(#linear-gradient-6);}.cls-13{fill:url(#radial-gradient);}.cls-14{fill:url(#linear-gradient-7);}.cls-15{fill:url(#linear-gradient-8);}.cls-16{fill:url(#radial-gradient-2);}.cls-17{mix-blend-mode:color-dodge;fill:url(#radial-gradient-3);}.cls-18{mix-blend-mode:lighten;}.cls-19{mask:url(#mask-6);}.cls-20{fill:url(#linear-gradient-9);}.cls-21{mask:url(#mask-7);}.cls-22{fill:url(#Gradiente_sem_nome_6);}.cls-23{mask:url(#mask-8);}.cls-24{fill:url(#Gradiente_sem_nome_3);}.cls-25{mask:url(#mask-9);}.cls-26{fill:url(#linear-gradient-10);}.cls-27{mask:url(#mask-10);}.cls-28{fill:url(#linear-gradient-11);}.cls-29{fill:#994392;mix-blend-mode:saturation;}.cls-30{filter:url(#luminosity-noclip-5);}.cls-31{filter:url(#luminosity-noclip-4);}.cls-32{filter:url(#luminosity-noclip-3);}.cls-33{filter:url(#luminosity-noclip-2);}.cls-34{filter:url(#luminosity-noclip);}</style><filter id="luminosity-noclip" x="191.05" y="-7915.54" width="3.21" height="32766" filterUnits="userSpaceOnUse" color-interpolation-filters="sRGB"><feFlood flood-color="#fff" result="bg"/><feBlend in="SourceGraphic" in2="bg"/></filter><mask id="mask" x="191.05" y="-7915.54" width="3.21" height="32766" maskUnits="userSpaceOnUse"><g class="cls-34"/></mask><linearGradient id="linear-gradient" x1="188.35" y1="113.37" x2="210.96" y2="115.75" gradientUnits="userSpaceOnUse"><stop offset="0" stop-color="#4d4d4d"/><stop offset="1" stop-color="#fff"/></linearGradient><filter id="luminosity-noclip-2" x="0.45" y="-7915.54" width="182.1" height="32766" filterUnits="userSpaceOnUse" color-interpolation-filters="sRGB"><feFlood flood-color="#fff" result="bg"/><feBlend in="SourceGraphic" in2="bg"/></filter><mask id="mask-2" x="0.45" y="-7915.54" width="182.1" height="32766" maskUnits="userSpaceOnUse"><g class="cls-33"/></mask><linearGradient id="linear-gradient-2" x1="0.45" y1="113.54" x2="182.55" y2="113.54" gradientUnits="userSpaceOnUse"><stop offset="0" stop-color="#fff"/><stop offset="1" stop-color="#1a1a1a"/></linearGradient><filter id="luminosity-noclip-3" x="0.45" y="-7915.54" width="155.29" height="32766" filterUnits="userSpaceOnUse" color-interpolation-filters="sRGB"><feFlood flood-color="#fff" result="bg"/><feBlend in="SourceGraphic" in2="bg"/></filter><mask id="mask-3" x="0.45" y="-7915.54" width="155.29" height="32766" maskUnits="userSpaceOnUse"><g class="cls-32"/></mask><linearGradient id="linear-gradient-3" x1="0.45" y1="113.54" x2="155.74" y2="113.54" gradientUnits="userSpaceOnUse"><stop offset="0" stop-color="#fff"/><stop offset="1" stop-color="#4d4d4d"/></linearGradient><filter id="luminosity-noclip-4" x="197.05" y="-7915.54" width="3.21" height="32766" filterUnits="userSpaceOnUse" color-interpolation-filters="sRGB"><feFlood flood-color="#fff" result="bg"/><feBlend in="SourceGraphic" in2="bg"/></filter><mask id="mask-4" x="197.05" y="-7915.54" width="3.21" height="32766" maskUnits="userSpaceOnUse"><g class="cls-31"/></mask><linearGradient id="linear-gradient-4" x1="188.42" y1="112.75" x2="211.03" y2="115.13" xlink:href="#linear-gradient"/><filter id="luminosity-noclip-5" x="203.19" y="-7915.54" width="3.21" height="32766" filterUnits="userSpaceOnUse" color-interpolation-filters="sRGB"><feFlood flood-color="#fff" result="bg"/><feBlend in="SourceGraphic" in2="bg"/></filter><mask id="mask-5" x="203.19" y="-7915.54" width="3.21" height="32766" maskUnits="userSpaceOnUse"><g class="cls-30"/></mask><linearGradient id="linear-gradient-5" x1="188.49" y1="112.11" x2="211.1" y2="114.49" xlink:href="#linear-gradient"/><linearGradient id="linear-gradient-6" x1="103.46" y1="5.84" x2="103.46" y2="230.03" gradientUnits="userSpaceOnUse"><stop offset="0" stop-color="#f5f5f5"/><stop offset="0.41" stop-color="#ddd"/><stop offset="1" stop-color="#b4b4b4"/></linearGradient><radialGradient id="radial-gradient" cx="24.91" cy="54.24" r="39.97" gradientTransform="translate(38.98 -37.23) scale(2.59 2.61)" gradientUnits="userSpaceOnUse"><stop offset="0.84" stop-color="#010101"/><stop offset="0.89" stop-color="#060606"/><stop offset="0.96" stop-color="#141414"/><stop offset="1" stop-color="#202020"/></radialGradient><linearGradient id="linear-gradient-7" x1="33.03" y1="104.23" x2="204.17" y2="104.23" gradientUnits="userSpaceOnUse"><stop offset="0.11" stop-color="#184b9b"/><stop offset="0.32" stop-color="#1b4b9b"/><stop offset="0.45" stop-color="#234c9b"/><stop offset="0.56" stop-color="#314c9b"/><stop offset="0.65" stop-color="#454e9b"/><stop offset="0.74" stop-color="#604f9b"/><stop offset="0.82" stop-color="#80519b"/><stop offset="0.89" stop-color="#a5539b"/><stop offset="0.92" stop-color="#b7549b"/></linearGradient><linearGradient id="linear-gradient-8" x1="103.46" y1="37.33" x2="103.46" y2="189.77" xlink:href="#linear-gradient-6"/><radialGradient id="radial-gradient-2" cx="24.91" cy="54.24" r="27.17" xlink:href="#radial-gradient"/><radialGradient id="radial-gradient-3" cx="29.57" cy="72.36" r="54.2" gradientTransform="translate(38.98 -37.23) scale(2.59 2.61)" gradientUnits="userSpaceOnUse"><stop offset="0" stop-color="#202020"/><stop offset="0.25" stop-color="#141414"/><stop offset="0.65" stop-color="#060606"/><stop offset="1" stop-color="#010101"/></radialGradient><filter id="luminosity-noclip-6" x="191.05" y="112.28" width="3.21" height="3.1" filterUnits="userSpaceOnUse" color-interpolation-filters="sRGB"><feFlood flood-color="#fff" result="bg"/><feBlend in="SourceGraphic" in2="bg"/></filter><mask id="mask-6" x="191.05" y="112.28" width="3.21" height="3.1" maskUnits="userSpaceOnUse"><g class="cls-1"><path class="cls-2" d="M194.27,113.83a1.61,1.61,0,1,1-1.61-1.55A1.58,1.58,0,0,1,194.27,113.83Z"/></g></mask><linearGradient id="linear-gradient-9" x1="188.35" y1="113.37" x2="210.96" y2="115.75" gradientUnits="userSpaceOnUse"><stop offset="0" stop-color="#4cb0e4"/><stop offset="1" stop-color="#945da2"/></linearGradient><filter id="luminosity-noclip-7" x="0.45" y="65.03" width="182.1" height="97.03" filterUnits="userSpaceOnUse" color-interpolation-filters="sRGB"><feFlood flood-color="#fff" result="bg"/><feBlend in="SourceGraphic" in2="bg"/></filter><mask id="mask-7" x="0.45" y="65.03" width="182.1" height="97.03" maskUnits="userSpaceOnUse"><g class="cls-3"><path class="cls-4" d="M178.37,110.28c-4.18-3.26-3.2.83-7.86,2.34s-4.24-2.75-12.35-6.22-7.08,3.78-12.94,6.22-3.26-14-8.89-14-5.73,11.63-11.23,11.63-7.23-46.07-17.36-43-10.7,42.12-18,42.12S79.2,83.14,71.29,85.78s-11,19.39-18.91,19.39S43.65,65,34.16,65,22.81,81.9,16.8,96.26.45,113.54.45,113.54s10.34,2.92,16.35,17.28,7.88,31.24,17.36,31.24,10.32-40.15,18.22-40.15,11,16.75,18.91,19.39,11.08-23.59,18.41-23.59,7.91,39.06,18,42.11,11.86-43,17.36-43,5.6,11.63,11.23,11.63,3-16.4,8.89-14,4.82,9.68,12.94,6.21,7.7-7.72,12.35-6.21,3.68,5.59,7.86,2.33l4.18-3.26Z"/></g></mask><linearGradient id="Gradiente_sem_nome_6" x1="0.45" y1="113.54" x2="182.55" y2="113.54" gradientUnits="userSpaceOnUse"><stop offset="0" stop-color="#994392"/><stop offset="1" stop-color="#4082c4"/></linearGradient><filter id="luminosity-noclip-8" x="0.45" y="87.65" width="155.29" height="51.78" filterUnits="userSpaceOnUse" color-interpolation-filters="sRGB"><feFlood flood-color="#fff" result="bg"/><feBlend in="SourceGraphic" in2="bg"/></filter><mask id="mask-8" x="0.45" y="87.65" width="155.29" height="51.78" maskUnits="userSpaceOnUse"><g class="cls-5"><path class="cls-6" d="M152.18,111.8c-3.57-1.74-2.73.44-6.7,1.25s-3.62-1.47-10.54-3.32-6,2-11,3.32-2.78-7.46-7.58-7.46-4.89,6.21-9.58,6.21-6.16-24.58-14.81-23-9.12,22.48-15.38,22.48-9-14-15.7-12.59-9.38,10.34-16.12,10.34S37.29,87.65,29.2,87.65s-9.68,9-14.81,16.67S.45,113.54.45,113.54s8.82,1.56,13.94,9.22,6.72,16.67,14.81,16.67S38,118,44.74,118s9.38,8.94,16.12,10.35,9.45-12.6,15.7-12.6,6.74,20.85,15.38,22.48,10.12-23,14.81-23,4.77,6.21,9.58,6.21,2.58-8.75,7.58-7.45,4.1,5.16,11,3.31,6.57-4.12,10.54-3.31,3.13,3,6.7,1.24l3.56-1.74Z"/></g></mask><linearGradient id="Gradiente_sem_nome_3" x1="0.45" y1="113.54" x2="155.74" y2="113.54" gradientUnits="userSpaceOnUse"><stop offset="0" stop-color="#994392"/><stop offset="1" stop-color="#27348b"/></linearGradient><filter id="luminosity-noclip-9" x="197.05" y="112.28" width="3.21" height="3.1" filterUnits="userSpaceOnUse" color-interpolation-filters="sRGB"><feFlood flood-color="#fff" result="bg"/><feBlend in="SourceGraphic" in2="bg"/></filter><mask id="mask-9" x="197.05" y="112.28" width="3.21" height="3.1" maskUnits="userSpaceOnUse"><g class="cls-7"><path class="cls-8" d="M200.27,113.83a1.61,1.61,0,1,1-1.61-1.55A1.58,1.58,0,0,1,200.27,113.83Z"/></g></mask><linearGradient id="linear-gradient-10" x1="188.42" y1="112.75" x2="211.03" y2="115.13" xlink:href="#linear-gradient-9"/><filter id="luminosity-noclip-10" x="203.19" y="112.28" width="3.21" height="3.1" filterUnits="userSpaceOnUse" color-interpolation-filters="sRGB"><feFlood flood-color="#fff" result="bg"/><feBlend in="SourceGraphic" in2="bg"/></filter><mask id="mask-10" x="203.19" y="112.28" width="3.21" height="3.1" maskUnits="userSpaceOnUse"><g class="cls-9"><path class="cls-10" d="M206.41,113.83a1.61,1.61,0,1,1-1.61-1.55A1.58,1.58,0,0,1,206.41,113.83Z"/></g></mask><linearGradient id="linear-gradient-11" x1="188.49" y1="112.11" x2="211.1" y2="114.49" xlink:href="#linear-gradient-9"/></defs><title>logoAsset 12</title><g class="cls-11"><g id="Layer_2" data-name="Layer 2"><g id="Camada_1" data-name="Camada 1"><ellipse class="cls-12" cx="103.46" cy="104.23" rx="103.46" ry="104.23"/><ellipse class="cls-13" cx="103.46" cy="104.23" rx="103.46" ry="104.23"/><ellipse class="cls-14" cx="103.46" cy="104.23" rx="85.57" ry="86.21"/><ellipse class="cls-15" cx="103.46" cy="104.23" rx="70.34" ry="70.87"/><ellipse class="cls-16" cx="103.46" cy="104.23" rx="70.34" ry="70.87"/><path class="cls-17" d="M57.92,123.63C79,102.37,110.36,89.29,140.2,89.29a110.34,110.34,0,0,1,32.9,5c-4.79-34.45-34.14-61-69.64-61-38.86,0-70.35,31.73-70.35,70.87A70.91,70.91,0,0,0,43.62,141.5,113,113,0,0,1,57.92,123.63Z"/><g class="cls-18"><g class="cls-19"><path class="cls-20" d="M194.27,113.83a1.61,1.61,0,1,1-1.61-1.55A1.58,1.58,0,0,1,194.27,113.83Z"/></g><g class="cls-21"><path class="cls-22" d="M178.37,110.28c-4.18-3.26-3.2.83-7.86,2.34s-4.24-2.75-12.35-6.22-7.08,3.78-12.94,6.22-3.26-14-8.89-14-5.73,11.63-11.23,11.63-7.23-46.07-17.36-43-10.7,42.12-18,42.12S79.2,83.14,71.29,85.78s-11,19.39-18.91,19.39S43.65,65,34.16,65,22.81,81.9,16.8,96.26.45,113.54.45,113.54s10.34,2.92,16.35,17.28,7.88,31.24,17.36,31.24,10.32-40.15,18.22-40.15,11,16.75,18.91,19.39,11.08-23.59,18.41-23.59,7.91,39.06,18,42.11,11.86-43,17.36-43,5.6,11.63,11.23,11.63,3-16.4,8.89-14,4.82,9.68,12.94,6.21,7.7-7.72,12.35-6.21,3.68,5.59,7.86,2.33l4.18-3.26Z"/></g><g class="cls-23"><path class="cls-24" d="M152.18,111.8c-3.57-1.74-2.73.44-6.7,1.25s-3.62-1.47-10.54-3.32-6,2-11,3.32-2.78-7.46-7.58-7.46-4.89,6.21-9.58,6.21-6.16-24.58-14.81-23-9.12,22.48-15.38,22.48-9-14-15.7-12.59-9.38,10.34-16.12,10.34S37.29,87.65,29.2,87.65s-9.68,9-14.81,16.67S.45,113.54.45,113.54s8.82,1.56,13.94,9.22,6.72,16.67,14.81,16.67S38,118,44.74,118s9.38,8.94,16.12,10.35,9.45-12.6,15.7-12.6,6.74,20.85,15.38,22.48,10.12-23,14.81-23,4.77,6.21,9.58,6.21,2.58-8.75,7.58-7.45,4.1,5.16,11,3.31,6.57-4.12,10.54-3.31,3.13,3,6.7,1.24l3.56-1.74Z"/></g><g class="cls-25"><path class="cls-26" d="M200.27,113.83a1.61,1.61,0,1,1-1.61-1.55A1.58,1.58,0,0,1,200.27,113.83Z"/></g><g class="cls-27"><path class="cls-28" d="M206.41,113.83a1.61,1.61,0,1,1-1.61-1.55A1.58,1.58,0,0,1,206.41,113.83Z"/></g></g><path class="cls-29" d="M57.92,122.39C79,101.13,110.36,88.05,140.2,88.05a110.34,110.34,0,0,1,32.9,5c-4.79-34.45-34.14-61-69.64-61C64.6,32.12,33.11,63.85,33.11,103a70.9,70.9,0,0,0,10.51,37.26A113.86,113.86,0,0,1,57.92,122.39Z"/></g></g></g></svg>